<?xml version="1.0" standalone="no"?>
<!DOCTYPE svg PUBLIC "-//W3C//DTD SVG 20010904//EN"
 "http://www.w3.org/TR/2001/REC-SVG-20010904/DTD/svg10.dtd">
<svg version="1.0" xmlns="http://www.w3.org/2000/svg"
 width="75.000000pt" height="50.000000pt" viewBox="0 0 75.000000 50.000000"
 preserveAspectRatio="xMidYMid meet">

<g transform="translate(0.000000,50.000000) scale(0.100000,-0.100000)"
fill="#000000" stroke="none">
<path d="M272 400 c-26 -24 -27 -39 -7 -66 17 -22 20 -116 5 -145 -9 -16 -7
-19 8 -19 10 0 27 -6 37 -14 14 -10 25 -10 46 -3 19 8 34 8 51 0 18 -8 31 -6
61 11 l39 21 -5 78 c-5 101 -20 120 -65 82 -29 -24 -31 -25 -37 -6 -9 28 -31
32 -51 10 -23 -25 -35 -24 -57 7 -15 20 -16 28 -6 40 19 23 5 26 -19 4z m98
-159 l0 -73 -22 14 c-31 21 -39 123 -11 143 26 19 33 2 33 -84z m90 13 c0 -41
-3 -74 -6 -74 -3 0 -14 5 -25 10 -25 14 -27 104 -3 131 26 29 34 13 34 -67z"/>
<path d="M103 348 c-33 -20 -33 -21 -33 -97 0 -62 4 -81 18 -94 16 -14 19 -14
42 3 14 11 29 20 34 20 10 0 -2 -71 -15 -87 -7 -8 -4 -10 11 -6 11 3 23 10 26
15 4 5 10 5 17 -1 9 -7 12 22 12 115 0 95 -3 124 -13 124 -7 0 -25 6 -40 14
-24 11 -31 11 -59 -6z m67 -92 c0 -56 -17 -83 -45 -72 -12 4 -15 23 -15 81 l0
76 30 -16 c28 -14 30 -20 30 -69z"/>
<path d="M588 349 c-38 -19 -38 -20 -38 -83 0 -36 -2 -70 -5 -78 -3 -8 10 -20
31 -30 33 -15 37 -15 65 0 16 10 29 21 29 26 0 5 -7 3 -15 -4 -12 -10 -21 -10
-40 -2 -39 18 -31 48 20 84 47 33 47 37 8 85 l-18 22 -37 -20z m46 -71 c-3 -4
-14 -13 -25 -18 -18 -10 -19 -7 -19 37 l1 48 24 -29 c13 -17 22 -33 19 -38z"/>
</g>
</svg>
